<?xml version="1.0" encoding="UTF-8" standalone="no"?>
<!DOCTYPE svg PUBLIC "-//W3C//DTD SVG 1.1//EN"
 "http://www.w3.org/Graphics/SVG/1.1/DTD/svg11.dtd">
<!-- Generated by graphviz version 3.0.0 (20220226.1711)
 -->
<!-- Pages: 1 -->
<svg width="901pt" height="1631pt"
 viewBox="0.00 0.00 901.00 1631.00" xmlns="http://www.w3.org/2000/svg" xmlns:xlink="http://www.w3.org/1999/xlink">
<g id="graph0" class="graph" transform="scale(1 1) rotate(0) translate(4 1627)">
<polygon fill="white" stroke="transparent" points="-4,4 -4,-1627 897,-1627 897,4 -4,4"/>
<!-- 1377893031936 -->
<g id="node1" class="node">
<title>1377893031936</title>
<polygon fill="none" stroke="black" points="862.5,-1623 30.5,-1623 30.5,-1580 862.5,-1580 862.5,-1623"/>
<text text-anchor="middle" x="446.5" y="-1597.8" font-family="Times New Roman,serif" font-size="14.00">Reverse the order of the letters in the following sentence: Hello, generative AI is quite amazing especially now that it can do multi&#45;step reasoning.</text>
</g>
<!-- 1377867921360 -->
<g id="node2" class="node">
<title>1377867921360</title>
<polygon fill="none" stroke="black" points="893,-1544 0,-1544 0,-1501 893,-1501 893,-1544"/>
<text text-anchor="middle" x="446.5" y="-1518.8" font-family="Times New Roman,serif" font-size="14.00">To reverse the order of the letters in a sentence, I can split the sentence into individual words and then reverse the order of the characters within each word.</text>
</g>
<!-- 1377893031936&#45;&gt;1377867921360 -->
<g id="edge1" class="edge">
<title>1377893031936&#45;&gt;1377867921360</title>
<path fill="none" stroke="black" d="M446.5,-1579.87C446.5,-1572.01 446.5,-1562.88 446.5,-1554.29"/>
<polygon fill="black" stroke="black" points="450,-1554.19 446.5,-1544.19 443,-1554.19 450,-1554.19"/>
</g>
<!-- 1377893028672 -->
<g id="node3" class="node">
<title>1377893028672</title>
<polygon fill="none" stroke="black" points="572,-1465 321,-1465 321,-1422 572,-1422 572,-1465"/>
<text text-anchor="middle" x="446.5" y="-1439.8" font-family="Times New Roman,serif" font-size="14.00">Split the sentence into individual words.</text>
</g>
<!-- 1377867921360&#45;&gt;1377893028672 -->
<g id="edge2" class="edge">
<title>1377867921360&#45;&gt;1377893028672</title>
<path fill="none" stroke="black" d="M446.5,-1500.87C446.5,-1493.01 446.5,-1483.88 446.5,-1475.29"/>
<polygon fill="black" stroke="black" points="450,-1475.19 446.5,-1465.19 443,-1475.19 450,-1475.19"/>
</g>
<!-- 1377877973120 -->
<g id="node4" class="node">
<title>1377877973120</title>
<polygon fill="none" stroke="black" points="724.5,-1386 168.5,-1386 168.5,-1343 724.5,-1343 724.5,-1386"/>
<text text-anchor="middle" x="446.5" y="-1360.8" font-family="Times New Roman,serif" font-size="14.00">Next, I will iterate through each word and reverse the order of the characters within each word.</text>
</g>
<!-- 1377893028672&#45;&gt;1377877973120 -->
<g id="edge3" class="edge">
<title>1377893028672&#45;&gt;1377877973120</title>
<path fill="none" stroke="black" d="M446.5,-1421.87C446.5,-1414.01 446.5,-1404.88 446.5,-1396.29"/>
<polygon fill="black" stroke="black" points="450,-1396.19 446.5,-1386.19 443,-1396.19 450,-1396.19"/>
</g>
<!-- 1377877972496 -->
<g id="node5" class="node">
<title>1377877972496</title>
<polygon fill="none" stroke="black" points="600,-1307 293,-1307 293,-1264 600,-1264 600,-1307"/>
<text text-anchor="middle" x="446.5" y="-1281.8" font-family="Times New Roman,serif" font-size="14.00">Reverse the order of characters within each word.</text>
</g>
<!-- 1377877973120&#45;&gt;1377877972496 -->
<g id="edge4" class="edge">
<title>1377877973120&#45;&gt;1377877972496</title>
<path fill="none" stroke="black" d="M446.5,-1342.87C446.5,-1335.01 446.5,-1325.88 446.5,-1317.29"/>
<polygon fill="black" stroke="black" points="450,-1317.19 446.5,-1307.19 443,-1317.19 450,-1317.19"/>
</g>
<!-- 1377889364656 -->
<g id="node6" class="node">
<title>1377889364656</title>
<polygon fill="none" stroke="black" points="693,-1228 200,-1228 200,-1185 693,-1185 693,-1228"/>
<text text-anchor="middle" x="446.5" y="-1202.8" font-family="Times New Roman,serif" font-size="14.00">Iterate through each word and reverse the order of the characters within each word.</text>
</g>
<!-- 1377877972496&#45;&gt;1377889364656 -->
<g id="edge5" class="edge">
<title>1377877972496&#45;&gt;1377889364656</title>
<path fill="none" stroke="black" d="M446.5,-1263.87C446.5,-1256.01 446.5,-1246.88 446.5,-1238.29"/>
<polygon fill="black" stroke="black" points="450,-1238.19 446.5,-1228.19 443,-1238.19 450,-1238.19"/>
</g>
<!-- 1377892587456 -->
<g id="node7" class="node">
<title>1377892587456</title>
<polygon fill="none" stroke="black" points="666.5,-1149 226.5,-1149 226.5,-1106 666.5,-1106 666.5,-1149"/>
<text text-anchor="middle" x="446.5" y="-1123.8" font-family="Times New Roman,serif" font-size="14.00">Join the reversed words back together to form the final reversed sentence.</text>
</g>
<!-- 1377889364656&#45;&gt;1377892587456 -->
<g id="edge6" class="edge">
<title>1377889364656&#45;&gt;1377892587456</title>
<path fill="none" stroke="black" d="M446.5,-1184.87C446.5,-1177.01 446.5,-1167.88 446.5,-1159.29"/>
<polygon fill="black" stroke="black" points="450,-1159.19 446.5,-1149.19 443,-1159.19 450,-1159.19"/>
</g>
<!-- 1377892587024 -->
<g id="node8" class="node">
<title>1377892587024</title>
<polygon fill="none" stroke="black" points="641,-1070 252,-1070 252,-1027 641,-1027 641,-1070"/>
<text text-anchor="middle" x="446.5" y="-1044.8" font-family="Times New Roman,serif" font-size="14.00">Combine the reversed words to form the final reversed sentence.</text>
</g>
<!-- 1377892587456&#45;&gt;1377892587024 -->
<g id="edge7" class="edge">
<title>1377892587456&#45;&gt;1377892587024</title>
<path fill="none" stroke="black" d="M446.5,-1105.87C446.5,-1098.01 446.5,-1088.88 446.5,-1080.29"/>
<polygon fill="black" stroke="black" points="450,-1080.19 446.5,-1070.19 443,-1080.19 450,-1080.19"/>
</g>
<!-- 1377893035632 -->
<g id="node9" class="node">
<title>1377893035632</title>
<polygon fill="none" stroke="black" points="686,-991 207,-991 207,-948 686,-948 686,-991"/>
<text text-anchor="middle" x="446.5" y="-965.8" font-family="Times New Roman,serif" font-size="14.00">Now, I will implement the steps to reverse the order of the letters in the sentence.</text>
</g>
<!-- 1377892587024&#45;&gt;1377893035632 -->
<g id="edge8" class="edge">
<title>1377892587024&#45;&gt;1377893035632</title>
<path fill="none" stroke="black" d="M446.5,-1026.87C446.5,-1019.01 446.5,-1009.88 446.5,-1001.29"/>
<polygon fill="black" stroke="black" points="450,-1001.19 446.5,-991.19 443,-1001.19 450,-1001.19"/>
</g>
<!-- 1377895354336 -->
<g id="node10" class="node">
<title>1377895354336</title>
<polygon fill="none" stroke="black" points="639,-912 254,-912 254,-869 639,-869 639,-912"/>
<text text-anchor="middle" x="446.5" y="-886.8" font-family="Times New Roman,serif" font-size="14.00">Implement a function to split the sentence into individual words.</text>
</g>
<!-- 1377893035632&#45;&gt;1377895354336 -->
<g id="edge9" class="edge">
<title>1377893035632&#45;&gt;1377895354336</title>
<path fill="none" stroke="black" d="M446.5,-947.87C446.5,-940.01 446.5,-930.88 446.5,-922.29"/>
<polygon fill="black" stroke="black" points="450,-922.19 446.5,-912.19 443,-922.19 450,-922.19"/>
</g>
<!-- 1377891282592 -->
<g id="node11" class="node">
<title>1377891282592</title>
<polygon fill="none" stroke="black" points="654,-833 239,-833 239,-790 654,-790 654,-833"/>
<text text-anchor="middle" x="446.5" y="-807.8" font-family="Times New Roman,serif" font-size="14.00">Implement the steps to reverse the order of the letters in the sentence.</text>
</g>
<!-- 1377895354336&#45;&gt;1377891282592 -->
<g id="edge10" class="edge">
<title>1377895354336&#45;&gt;1377891282592</title>
<path fill="none" stroke="black" d="M446.5,-868.87C446.5,-861.01 446.5,-851.88 446.5,-843.29"/>
<polygon fill="black" stroke="black" points="450,-843.19 446.5,-833.19 443,-843.19 450,-843.19"/>
</g>
<!-- 1377895351936 -->
<g id="node12" class="node">
<title>1377895351936</title>
<polygon fill="none" stroke="black" points="639,-754 254,-754 254,-711 639,-711 639,-754"/>
<text text-anchor="middle" x="446.5" y="-728.8" font-family="Times New Roman,serif" font-size="14.00">Implement a function to split the sentence into individual words.</text>
</g>
<!-- 1377891282592&#45;&gt;1377895351936 -->
<g id="edge11" class="edge">
<title>1377891282592&#45;&gt;1377895351936</title>
<path fill="none" stroke="black" d="M446.5,-789.87C446.5,-782.01 446.5,-772.88 446.5,-764.29"/>
<polygon fill="black" stroke="black" points="450,-764.19 446.5,-754.19 443,-764.19 450,-764.19"/>
</g>
<!-- 1377894154992 -->
<g id="node13" class="node">
<title>1377894154992</title>
<polygon fill="none" stroke="black" points="665.5,-675 227.5,-675 227.5,-632 665.5,-632 665.5,-675"/>
<text text-anchor="middle" x="446.5" y="-649.8" font-family="Times New Roman,serif" font-size="14.00">Implement a function to reverse the order of characters within each word.</text>
</g>
<!-- 1377895351936&#45;&gt;1377894154992 -->
<g id="edge12" class="edge">
<title>1377895351936&#45;&gt;1377894154992</title>
<path fill="none" stroke="black" d="M446.5,-710.87C446.5,-703.01 446.5,-693.88 446.5,-685.29"/>
<polygon fill="black" stroke="black" points="450,-685.19 446.5,-675.19 443,-685.19 450,-685.19"/>
</g>
<!-- 1377916716864 -->
<g id="node14" class="node">
<title>1377916716864</title>
<polygon fill="none" stroke="black" points="665.5,-596 227.5,-596 227.5,-553 665.5,-553 665.5,-596"/>
<text text-anchor="middle" x="446.5" y="-570.8" font-family="Times New Roman,serif" font-size="14.00">Implement a function to reverse the order of characters within each word.</text>
</g>
<!-- 1377894154992&#45;&gt;1377916716864 -->
<g id="edge13" class="edge">
<title>1377894154992&#45;&gt;1377916716864</title>
<path fill="none" stroke="black" d="M446.5,-631.87C446.5,-624.01 446.5,-614.88 446.5,-606.29"/>
<polygon fill="black" stroke="black" points="450,-606.19 446.5,-596.19 443,-606.19 450,-606.19"/>
</g>
<!-- 1377873871600 -->
<g id="node15" class="node">
<title>1377873871600</title>
<polygon fill="none" stroke="black" points="734,-517 159,-517 159,-474 734,-474 734,-517"/>
<text text-anchor="middle" x="446.5" y="-491.8" font-family="Times New Roman,serif" font-size="14.00">Implement a function to join the reversed words back together to form the final reversed sentence.</text>
</g>
<!-- 1377916716864&#45;&gt;1377873871600 -->
<g id="edge14" class="edge">
<title>1377916716864&#45;&gt;1377873871600</title>
<path fill="none" stroke="black" d="M446.5,-552.87C446.5,-545.01 446.5,-535.88 446.5,-527.29"/>
<polygon fill="black" stroke="black" points="450,-527.19 446.5,-517.19 443,-527.19 450,-527.19"/>
</g>
<!-- 1377891763552 -->
<g id="node16" class="node">
<title>1377891763552</title>
<polygon fill="none" stroke="black" points="734,-438 159,-438 159,-395 734,-395 734,-438"/>
<text text-anchor="middle" x="446.5" y="-412.8" font-family="Times New Roman,serif" font-size="14.00">Implement a function to join the reversed words back together to form the final reversed sentence.</text>
</g>
<!-- 1377873871600&#45;&gt;1377891763552 -->
<g id="edge15" class="edge">
<title>1377873871600&#45;&gt;1377891763552</title>
<path fill="none" stroke="black" d="M446.5,-473.87C446.5,-466.01 446.5,-456.88 446.5,-448.29"/>
<polygon fill="black" stroke="black" points="450,-448.19 446.5,-438.19 443,-448.19 450,-448.19"/>
</g>
<!-- 1377916093792 -->
<g id="node17" class="node">
<title>1377916093792</title>
<polygon fill="none" stroke="black" points="734,-359 159,-359 159,-316 734,-316 734,-359"/>
<text text-anchor="middle" x="446.5" y="-333.8" font-family="Times New Roman,serif" font-size="14.00">Implement a function to join the reversed words back together to form the final reversed sentence.</text>
</g>
<!-- 1377891763552&#45;&gt;1377916093792 -->
<g id="edge16" class="edge">
<title>1377891763552&#45;&gt;1377916093792</title>
<path fill="none" stroke="black" d="M446.5,-394.87C446.5,-387.01 446.5,-377.88 446.5,-369.29"/>
<polygon fill="black" stroke="black" points="450,-369.19 446.5,-359.19 443,-369.19 450,-369.19"/>
</g>
<!-- 1377894155472 -->
<g id="node18" class="node">
<title>1377894155472</title>
<polygon fill="none" stroke="black" points="639,-280 254,-280 254,-237 639,-237 639,-280"/>
<text text-anchor="middle" x="446.5" y="-254.8" font-family="Times New Roman,serif" font-size="14.00">Implement a function to split the sentence into individual words.</text>
</g>
<!-- 1377916093792&#45;&gt;1377894155472 -->
<g id="edge17" class="edge">
<title>1377916093792&#45;&gt;1377894155472</title>
<path fill="none" stroke="black" d="M446.5,-315.87C446.5,-308.01 446.5,-298.88 446.5,-290.29"/>
<polygon fill="black" stroke="black" points="450,-290.19 446.5,-280.19 443,-290.19 450,-290.19"/>
</g>
<!-- 1377894367648 -->
<g id="node19" class="node">
<title>1377894367648</title>
<polygon fill="none" stroke="black" points="639,-201 254,-201 254,-158 639,-158 639,-201"/>
<text text-anchor="middle" x="446.5" y="-175.8" font-family="Times New Roman,serif" font-size="14.00">Implement a function to split the sentence into individual words.</text>
</g>
<!-- 1377894155472&#45;&gt;1377894367648 -->
<g id="edge18" class="edge">
<title>1377894155472&#45;&gt;1377894367648</title>
<path fill="none" stroke="black" d="M446.5,-236.87C446.5,-229.01 446.5,-219.88 446.5,-211.29"/>
<polygon fill="black" stroke="black" points="450,-211.19 446.5,-201.19 443,-211.19 450,-211.19"/>
</g>
<!-- 1377893185920 -->
<g id="node20" class="node">
<title>1377893185920</title>
<polygon fill="none" stroke="black" points="665.5,-122 227.5,-122 227.5,-79 665.5,-79 665.5,-122"/>
<text text-anchor="middle" x="446.5" y="-96.8" font-family="Times New Roman,serif" font-size="14.00">Implement a function to reverse the order of characters within each word.</text>
</g>
<!-- 1377894367648&#45;&gt;1377893185920 -->
<g id="edge19" class="edge">
<title>1377894367648&#45;&gt;1377893185920</title>
<path fill="none" stroke="black" d="M446.5,-157.87C446.5,-150.01 446.5,-140.88 446.5,-132.29"/>
<polygon fill="black" stroke="black" points="450,-132.19 446.5,-122.19 443,-132.19 450,-132.19"/>
</g>
<!-- 1377916530336 -->
<g id="node21" class="node">
<title>1377916530336</title>
<polygon fill="none" stroke="black" points="676,-43 217,-43 217,0 676,0 676,-43"/>
<text text-anchor="middle" x="446.5" y="-17.8" font-family="Times New Roman,serif" font-size="14.00">Now, I will implement the function to split the sentence into individual words.</text>
</g>
<!-- 1377893185920&#45;&gt;1377916530336 -->
<g id="edge20" class="edge">
<title>1377893185920&#45;&gt;1377916530336</title>
<path fill="none" stroke="black" d="M446.5,-78.87C446.5,-71.01 446.5,-61.88 446.5,-53.29"/>
<polygon fill="black" stroke="black" points="450,-53.19 446.5,-43.19 443,-53.19 450,-53.19"/>
</g>
</g>
</svg>
